<?xml version="1.0" encoding="utf-8"?>
<!-- Generator: Adobe Illustrator 16.0.0, SVG Export Plug-In . SVG Version: 6.00 Build 0)  -->
<!DOCTYPE svg PUBLIC "-//W3C//DTD SVG 1.1//EN" "http://www.w3.org/Graphics/SVG/1.1/DTD/svg11.dtd">
<svg version="1.1" id="Layer_1" xmlns="http://www.w3.org/2000/svg" xmlns:xlink="http://www.w3.org/1999/xlink" x="0px" y="0px"
	 width="288px" height="288px" viewBox="0 0 288 288" enable-background="new 0 0 288 288" xml:space="preserve">
<g>
	<g>
		<g>
			<path fill="#991D20" d="M113.2,152.6l-8.6,0c-1,0-1.9,0-2.1-1.2c-0.3-1.5,1.1-1.8,1.1-1.8c-0.1,0.1-0.5,0.7-0.2,1.4
				c0.2,0.6,0.8,0.5,1.6,0.5l9.6,0C114.6,152.5,113.2,152.6,113.2,152.6z"/>
			<path fill="#991D20" d="M110.9,190h-4.2c-0.7,0-1.4-0.1-1.6-0.9c-0.3-0.9,0.7-1.2,0.7-1.2c-0.1,0.1-0.2,0.4,0,0.8
				c0.2,0.4,0.6,0.4,1.2,0.4l4.9,0C111.9,190,110.9,190,110.9,190z"/>
			<path fill="#991D20" d="M116.4,147.7c1.4-1.3,2.7-3.5,1.8-6.7l0-0.1c0,0-1.4-3.5-0.2-7.4l0.4-1.3l-1.3,0.2
				c-0.2,0-1.8,0.3-3.7,2.2c-1.6-3.2-4.6-5.6-7.8-7.2c1.2,3.7,1.3,5.1,0.4,6.6c-2.2-2-4.8-2.4-4.9-2.4l-1.5-0.2l0.6,1.4
				c1,2.3,0.2,3.8-0.7,5.6c-0.7,1.3-1.4,2.9-1.4,4.7c0,2.5,1.2,4,2.4,4.9c-0.8,0.7-1.4,1.8-1.4,3.1c0,1.5,0.8,2.9,2,3.6
				c0.4,1.2,1.2,2.2,2.3,2.8l1.4,27.8c-1.7,0.4-2.9,1.9-2.9,3.6c0,1.9,1.4,3.5,3.3,3.7l0.6,11.1c0,1.6,1.3,3,3,3c1.7,0,3-1.3,3-3
				l0.5-11.2c1.9-0.2,3.3-1.8,3.3-3.7c0-1.8-1.3-3.3-3-3.6l1.2-27.7c1.2-0.6,2.1-1.6,2.5-2.9c1.2-0.7,2-2.1,2-3.5
				C118.2,149.8,117.5,148.5,116.4,147.7z M115.9,134.8c-0.6,3.5,0.5,6.4,0.6,6.8c1,3.6-1.7,5.2-2.3,5.5l-0.1,0l-2.7,0
				c1.7-2.2,3-5.1,3-7.7c0-0.8-0.1-1.5-0.2-2.2l-0.2-0.8C114.8,135.7,115.4,135.1,115.9,134.8z M108.1,130.8
				c2.1,1.7,4.7,4.9,4.7,8.6c0,3.3-2.9,7.2-3.5,7.7c-0.6-0.7-1.2-2.1-1.2-3.7c0-2.8,1.3-4.4,1.3-4.4s-2,1.3-2.3,3.8
				c-0.1,1.2,0.1,2.6,1,4.3h-1.2c-0.3-0.5-2.7-3.4-0.7-6.7c0.3-0.5,1.8-2.7,2-3.1c0.2-0.5,0.2-1,0.2-1c-0.2,0.4-0.7,0.9-0.7,0.9
				c-0.4,0.5-1.8,1.9-2.3,2.5c-2.8,3.4-0.1,7.1,0.1,7.5c-0.1,0-1.1,0-1.1,0c-1.2-1.4-1.7-2.8-1.5-4.9
				C103.1,137.6,108.7,137,108.1,130.8z M99.8,143.2c0-1.5,0.6-2.7,1.2-4c0.8-1.6,1.6-3.3,1.2-5.5c0.8,0.3,1.8,0.9,2.7,1.7
				c-0.6,0.7-1.2,1.3-1.5,1.8c-2.4,2.8-3.3,6.2-0.7,9.9h-0.4C102.3,147.2,99.8,146.3,99.8,143.2z M110.1,203.7
				c0,0.7-0.5,1.3-1.3,1.3c-0.7,0-1.3-0.6-1.3-1.3l-0.5-11.1h0.7l0.4,10.7c0,0.8,0.4,1,0.4,1l-0.2-11.7l2.4,0L110.1,203.7z
				 M113.9,188.9c0,1.1-0.9,2-2,2l-6.3,0c-1.1,0-2-0.9-2-2c0-1.1,0.9-2,2-2l6.3,0C113,186.9,113.9,187.8,113.9,188.9z M105.1,158
				c0,0,0.4,0.1,1.1,0.1l1,27.1l-0.8,0L105.1,158z M107.5,158.2c1.3,0.1,2.9,0,4.6-0.2l-1.2,27.2l-2.9,0L107.5,158.2z M111.6,156.4
				l-5.9,0c-1,0-1.9-0.5-2.5-1.2l10.9,0C113.6,155.9,112.7,156.4,111.6,156.4z M114.5,153.5l-11.6,0c-1.1,0-2.1-0.9-2.1-2.4
				c0-1.4,1-2.4,2.1-2.4l11.6,0c1.1,0,2.1,1,2.1,2.3C116.6,152.5,115.5,153.5,114.5,153.5z"/>
		</g>
		<g>
			<path fill="#991D20" d="M182.6,152.6l-8.6,0c-1,0-1.9,0-2.1-1.2c-0.3-1.5,1.1-1.8,1.1-1.8c-0.1,0.1-0.5,0.7-0.2,1.4
				c0.2,0.6,0.8,0.5,1.6,0.5l9.6,0C184,152.5,182.6,152.6,182.6,152.6z"/>
			<path fill="#991D20" d="M180.3,190h-4.2c-0.7,0-1.4-0.1-1.6-0.9c-0.3-0.9,0.7-1.2,0.7-1.2c-0.1,0.1-0.2,0.4,0,0.8
				c0.2,0.4,0.6,0.4,1.2,0.4l4.9,0C181.2,190,180.3,190,180.3,190z"/>
			<path fill="#991D20" d="M185.8,147.7c1.4-1.3,2.7-3.5,1.8-6.7l0-0.1c0,0-1.4-3.5-0.2-7.4l0.4-1.3l-1.3,0.2
				c-0.2,0-1.8,0.3-3.7,2.2c-1.6-3.2-4.6-5.6-7.8-7.2c1.2,3.7,1.3,5.1,0.4,6.6c-2.2-2-4.8-2.4-4.9-2.4l-1.5-0.2l0.6,1.4
				c1,2.3,0.2,3.8-0.7,5.6c-0.7,1.3-1.4,2.9-1.4,4.7c0,2.5,1.3,4,2.4,4.9c-0.8,0.8-1.4,1.8-1.4,3.1c0,1.5,0.8,2.9,2,3.6
				c0.4,1.2,1.2,2.2,2.3,2.8l1.4,27.8c-1.7,0.4-2.9,1.9-2.9,3.6c0,1.9,1.5,3.5,3.3,3.7l0.6,11.1c0,1.6,1.3,3,3,3c1.7,0,3-1.3,3-3
				l0.5-11.2c1.9-0.2,3.3-1.8,3.3-3.7c0-1.8-1.3-3.3-3-3.6l1.2-27.7c1.2-0.6,2.1-1.6,2.5-2.9c1.2-0.7,2-2.1,2-3.5
				C187.6,149.8,186.9,148.5,185.8,147.7z M185.3,134.8c-0.6,3.5,0.5,6.4,0.6,6.8c1,3.6-1.7,5.2-2.3,5.5l-0.1,0l-2.7,0
				c1.7-2.2,3-5.1,3-7.7c0-0.8-0.1-1.5-0.2-2.2l-0.2-0.8C184.1,135.7,184.8,135.1,185.3,134.8z M177.5,130.8
				c2.1,1.7,4.7,4.9,4.7,8.6c0,3.3-2.9,7.2-3.6,7.7c-0.6-0.7-1.2-2.1-1.2-3.7c0-2.8,1.3-4.4,1.3-4.4s-2,1.3-2.3,3.8
				c-0.1,1.2,0.1,2.6,1,4.3h-1.2c-0.3-0.5-2.7-3.4-0.7-6.7c0.3-0.5,1.8-2.7,2-3.1c0.2-0.5,0.2-1,0.2-1c-0.2,0.4-0.7,0.9-0.7,0.9
				c-0.4,0.5-1.8,1.9-2.3,2.5c-2.8,3.4-0.1,7.1,0.1,7.5c-0.1,0-1.1,0-1.1,0c-1.2-1.4-1.7-2.8-1.5-4.9
				C172.4,137.6,178.1,137,177.5,130.8z M169.2,143.2c0-1.5,0.6-2.7,1.2-4c0.8-1.6,1.6-3.3,1.2-5.5c0.8,0.3,1.8,0.9,2.7,1.7
				c-0.6,0.7-1.2,1.3-1.5,1.8c-2.4,2.8-3.3,6.2-0.7,9.9h-0.4C171.7,147.2,169.2,146.3,169.2,143.2z M179.4,203.7
				c0,0.7-0.5,1.3-1.3,1.3c-0.7,0-1.3-0.6-1.3-1.3l-0.5-11.1h0.7l0.4,10.7c0,0.8,0.4,1,0.4,1l-0.2-11.7l2.4,0L179.4,203.7z
				 M183.3,188.9c0,1.1-0.9,2-2,2l-6.3,0c-1.1,0-2-0.9-2-2c0-1.1,0.9-2,2-2l6.3,0C182.4,186.9,183.3,187.8,183.3,188.9z M174.5,158
				c0,0,0.4,0.1,1.1,0.1l1,27.1l-0.8,0L174.5,158z M176.9,158.2c1.3,0.1,2.9,0,4.6-0.2l-1.2,27.2l-2.9,0L176.9,158.2z M181,156.4
				l-5.9,0c-1,0-1.9-0.5-2.5-1.2l10.9,0C182.9,155.9,182,156.4,181,156.4z M183.8,153.5l-11.6,0c-1.1,0-2.1-0.9-2.1-2.4
				c0-1.4,1-2.4,2.1-2.4l11.6,0c1.1,0,2.1,1,2.1,2.3C185.9,152.5,184.9,153.5,183.8,153.5z"/>
		</g>
		<g>
			<path fill="#991D20" d="M154.2,150.6c1.8-1.5,4-4.4,2.7-9.1l0-0.1c0-0.1-2-5-0.3-10.5l0.4-1.3l-1.3,0.2c-0.1,0-2.4,0.3-5.2,3.2
				c-2.6-5.5-8.3-8.9-8.6-9.1l-2.1-1.2l0.8,2.3c0.3,0.9,1,3.7,0.4,5.7c-0.2,0.6-0.5,1.1-0.7,1.5c-3-2.9-6.7-3.5-6.9-3.5l-1.5-0.2
				l0.6,1.4c1.4,3.3,0.3,5.5-0.9,8.1c-0.9,1.9-1.9,3.9-1.9,6.4c0,3.4,1.8,5.6,3.5,6.7c-1.3,1-2.1,2.5-2.1,4.2c0,2.1,1.2,3.9,3,4.8
				c0.3,1.8,1.5,3.3,3.1,4l1.8,39c-2.2,0.4-3.9,2.3-3.9,4.7c0,2.5,1.9,4.5,4.3,4.7l0.7,15.7c0,2.2,1.8,4,4,4c2.2,0,4-1.8,4-4
				l0.7-15.7c2.5-0.1,4.6-2.2,4.6-4.7c0-2.4-1.8-4.4-4.1-4.7l1.8-39c1.7-0.8,2.9-2.3,3.2-4c1.7-0.9,2.9-2.7,2.9-4.7
				C157,153.3,155.8,151.5,154.2,150.6z M154.5,132.1c-1.1,5.2,0.5,9.5,0.8,10c1.3,4.7-1.8,7.1-3.1,7.9c-0.2,0-0.4,0-0.5,0l-4.2,0
				c1.8-2.2,4.4-6.3,4.4-11.4c0-1.3-0.2-2.6-0.6-3.8C152.4,133.4,153.6,132.5,154.5,132.1z M142.5,131.3c0.5-1.5,0.4-3.2,0.2-4.5
				c2.6,2,7.2,6.4,7.3,11.9c0,5.6-3.6,9.9-5,11.4l-0.2,0c-0.8-1-1.7-3-1.7-5.1c0-3.8,1.9-6.1,1.9-6.1s-2.8,1.8-3.2,5.3
				c-0.2,1.7,0.2,3.5,1.3,5.9h-1.7c-0.5-0.8-3.6-4.8-1-9.3c0.4-0.8,2.5-3.7,2.7-4.3c0.3-0.7,0.3-1.4,0.3-1.4
				c-0.3,0.5-0.9,1.2-0.9,1.2c-0.6,0.6-2.6,2.7-3.2,3.4c-3.8,4.6-0.2,9.7,0.1,10.3l-1.9,0c-5.3-6.9,0.3-12.3,0.5-12.5l0.1-0.1
				c0.4-0.4,0.7-0.8,1-1.1C140.6,134.8,141.7,133.5,142.5,131.3z M131.3,144.4c0-2.1,0.8-3.8,1.7-5.6c1.2-2.4,2.3-4.8,1.5-8
				c1.3,0.4,3.1,1.2,4.6,2.9c-0.4,0.5-0.8,0.9-1.2,1.4c-0.3,0.4-0.7,0.7-1.1,1.2c-0.5,0.5-6.1,6.5-1.4,13.8c-0.2,0-0.4,0.1-0.6,0.1
				C134.4,150,131.3,148.5,131.3,144.4z M140.4,164.6L142,203l-1.5,0l-1.8-38.5c0.1,0,0.3,0,0.4,0L140.4,164.6z M146.2,228.2
				c0,1.3-1,2.3-2.3,2.3c-1.3,0-2.3-1-2.3-2.3l-0.7-15.6l1.4,0l0.6,15.3c0,1.1,0.5,1.4,0.5,1.4l-0.3-16.6l3.8,0L146.2,228.2z
				 M151.5,207.8c0,1.7-1.3,3-3,3l-8.9,0c-1.7,0-3-1.3-3-3c0-1.7,1.3-3,3-3l8.9,0C150.2,204.8,151.5,206.1,151.5,207.8z M147.4,203
				l-4.5,0l-0.5-38.4l6.1,0c0.2,0,0.4,0,0.6,0L147.4,203z M148.5,162.9l-9.3,0c-1.5,0-2.8-0.9-3.3-2.2c0.1,0,0.3,0,0.4,0l15.3,0
				c0.2,0,0.3,0,0.5,0C151.6,161.9,150.1,162.8,148.5,162.9z M151.6,158.9l-15.3,0c-2,0-3.6-1.6-3.6-3.6c0-2,1.6-3.6,3.6-3.6l15.3,0
				c0.3,0,0.5,0,0.8,0.1l0,0c0,0,0,0,0,0c1.6,0.4,2.8,1.8,2.8,3.5C155.2,157.3,153.6,158.9,151.6,158.9z"/>
			<path fill="#991D20" d="M135.4,155.4c-0.4-1.1,0.1-2.2,0.3-2.3c0,0-2.2,0.4-1.6,2.8c0.4,1.9,1.7,2,3.3,2l13.9,0
				c0,0,1.6,0.2,2.2-1.4l-15.5,0C136.7,156.5,135.8,156.4,135.4,155.4z"/>
			<path fill="#991D20" d="M138.9,207.9c-0.3-0.9,0.1-1.7,0.2-1.8c0,0-1.7,0.3-1.3,2.2c0.3,1.5,1.3,1.6,2.6,1.6l7.6,0
				c0,0,1.3,0.1,1.8-1.1l-8.9,0C139.9,208.8,139.2,208.7,138.9,207.9z"/>
		</g>
	</g>
	<path fill="#991D20" d="M227.1,83.6l-0.3-5c-0.3-4.6-0.9-9.5-1.7-14.5l-0.6-3.4c-0.3-1.8-0.7-3.6-1.1-5.4l-0.3-1.5l-1.5,0.4
		c0,0-2.5,0.7-6.5,1.4l-9.8,1.1c-1.9,0.1-4,0.2-6.2,0.2c-5.7,0-11.3-0.5-16.7-1.5l-3.4-0.7c-0.1,0-0.1,0-0.2,0c-0.1,0-2.8-0.6-7-2
		l-4.6-1.7c-4.6-1.8-10-4.5-15.4-8.1l-4.5-3.3c-0.8-0.7-1.7-1.3-2.5-2.1l-1-0.9l-1,0.9c0,0-0.8,0.8-2.4,2l-4.6,3.3
		c-3.7,2.5-9,5.5-15.5,8.1l-4.6,1.7c-2.2,0.8-4.5,1.5-7,2.1c-0.1,0-0.1,0-0.2,0l-4,0.9c-4.7,0.9-9.7,1.3-15,1.3
		c-2.6,0-5.1-0.1-7.4-0.3l-9.8-1.1c-3.9-0.6-6.3-1.2-6.3-1.2L64.8,54l-0.3,1.5c-0.3,1.5-0.6,2.9-0.9,4.3l-0.7,4.4
		c-0.8,4.9-1.3,9.6-1.6,14.2l-0.3,5c-0.1,2.5-0.2,4.8-0.2,7.1l0,4.9c0.3,13.7,1.9,23.2,2,24c0.2,1.2,3.1,23.3,14.1,50
		c10.3,25,30.1,59.3,65.7,80.9l1.5,0.9l1.5-0.9c35.6-21.7,55.3-56,65.5-81.1c10.9-26.7,13.8-48.8,13.9-50c0.1-0.8,1.7-10.1,2-23.7
		l0-4.9C227.2,88.3,227.2,86,227.1,83.6z M188.7,119.7l-0.4-1.4c-5.1,1.4-8.8,2-11.5,2c0,0,0,0,0,0c-4.7,0-12.1-0.6-20.3-3.5
		c-2.2-0.8-4.9-1.6-7.8-2.1c-3-0.5-5.5-0.6-8.2-0.2c-3.4,0.4-6.6,1.4-9.2,2.4c-8.3,2.9-15.6,3.5-20.3,3.5c0,0,0,0,0,0
		c-4,0-9.7-1.5-14.6-2.9l-0.4,1.4l0.4-1.4c-1.4-0.4-2.8-0.8-4.2-1.2l-1.6-0.5c-2.9-0.9-7.9-1.5-11.4-1.5c0,0,0,0,0,0
		c-4.9,0-9.2,1.1-13.5,3.3c-0.1-0.7-0.3-1.8-0.4-3.1c4.3-2.3,9-3.6,13.9-3.6c0,0,0,0,0.1,0c3.3,0,8,0.6,10.6,1.4l5.8,1.7l0.4-1.4
		l-0.4,1.4c5.4,1.6,11.1,3,15.4,3c0,0,0,0,0,0c4.9,0,12.6-0.7,21.3-3.7c2.5-0.9,5.5-1.8,8.6-2.2l2.8-0.2c0.1,0,0.1,0,0.2,0l4.4,0.4
		c2.7,0.5,5.2,1.3,7.3,2c8.6,3,16.3,3.7,21.2,3.7c0,0,0.1,0,0.1,0c3,0,6.7-0.7,12.2-2.1c2.2-0.6,4.5-1.3,6.6-1.9l2.4-0.7
		c2.6-0.8,7.5-1.4,10.8-1.4c0,0,0,0,0,0c4.9,0,9.7,1.3,14,3.6c-0.2,1.3-0.3,2.3-0.4,3c-4.3-2.1-8.7-3.2-13.6-3.2c0,0,0,0,0,0
		c-3.2,0-8.4,0.6-11.6,1.5l-2.4,0.7c-2.1,0.6-4.3,1.3-6.5,1.9L188.7,119.7z M111.2,110.8C111.2,110.8,111.2,110.8,111.2,110.8
		c3.5,0,8.3-0.4,13.8-1.6c2.4-0.5,4.9-1.2,7.5-2.1c2.5-0.9,5.4-1.8,8.6-2.2l3-0.2l4.4,0.4c2.7,0.5,5.4,1.3,7.3,2
		c3.2,1.1,6.3,1.9,9.1,2.5c4.8,0.9,9,1.2,12.1,1.2c0,0,0,0,0,0c3,0,6.8-0.7,12.2-2.1c2.3-0.6,4.6-1.3,6.8-1.9l2.2-0.7
		c2.6-0.8,7.5-1.4,10.8-1.4c0,0,0,0,0,0c5,0,10.2,1.3,14.4,3.5c-0.1,1.2-0.2,2.2-0.3,3.2c-4.4-2.2-9.4-3.4-14.4-3.4c0,0,0,0,0,0
		c-3.2,0-8.4,0.6-11.6,1.5l-2.4,0.7c-2.1,0.6-4.4,1.3-6.6,1.9c-3.3,0.9-8,2-11.6,2c-4.7,0-12-0.6-20.3-3.5c-1-0.4-2.2-0.8-3.5-1.1
		c-1.4-0.4-2.8-0.8-4.3-1c-1.7-0.3-3.2-0.4-4.8-0.4c-1.1,0-2.3,0.1-3.4,0.2v0c-1.8,0.2-3.5,0.6-5.1,1.1c-1.4,0.4-2.8,0.9-4.1,1.3
		c-8.3,2.9-15.6,3.5-20.3,3.5c0,0,0,0,0,0c-4,0-9.7-1.5-14.6-2.9l-5.8-1.7c-2.9-0.9-7.8-1.5-11.4-1.5c0,0,0,0-0.1,0
		c-5,0-9.9,1.2-14.3,3.4c-0.1-1-0.2-2-0.3-3.1c4.4-2.3,9.7-3.6,14.8-3.6c0,0,0,0,0,0c3.3,0,8,0.6,10.6,1.4l5.8,1.7l0.4-1.4l-0.4,1.4
		C101.2,109.4,106.8,110.8,111.2,110.8z M144.1,101.8l0,0.2L144.1,101.8c-1.2,0-2.3,0.1-3.4,0.2v0c-3.4,0.4-6.5,1.4-9.2,2.4
		c-7.1,2.5-13.5,3.3-18.2,3.5c2.1-15.3,15-26.7,30.6-26.7c0,0,0,0,0,0c15.4,0,28.5,11.5,30.7,26.6c-4.6-0.2-11-1-17.9-3.4
		c-2.1-0.7-4.9-1.6-7.8-2.1l0,0.1l0-0.1C147.3,101.9,145.7,101.8,144.1,101.8z M189,107.2l-0.4-1.4c-3.1,0.8-7.5,1.9-11,2
		c-0.4-2.9-1.2-5.8-2.3-8.4l48.9-3.7c-0.1,3.4-0.2,6.5-0.4,9.2c-4.5-2.1-9.7-3.3-14.7-3.3c0,0,0,0,0,0c-3.2,0-8.4,0.6-11.6,1.5
		l-2.2,0.7c-2.2,0.6-4.5,1.3-6.7,1.9L189,107.2z M224.3,91l-49.8,6.6c-0.4-0.8-0.8-1.6-1.2-2.3l50.8-11.1
		C224.3,86.5,224.3,88.8,224.3,91z M222.4,65.3c0.7,4.8,1.2,9.5,1.5,14l-51.5,14.4c-0.9-1.4-1.9-2.7-3-3.9L222.4,65.3z M209.4,59.3
		c5.4-0.5,9.5-1.4,11.5-1.9c0.2,0.9,0.3,1.8,0.5,2.8l-53.2,28.5c-0.5-0.6-1.1-1.1-1.7-1.6L209.4,59.3z M182.6,58.4
		c5.4,0.9,10.9,1.4,16.6,1.4c0.7,0,1.3,0,2,0L165.4,86c-1.4-1.2-3-2.2-4.6-3.2L182.6,58.4z M170.3,55.3c3.1,1.1,5.5,1.7,6.8,2
		l-18.3,24.4c-0.9-0.5-1.9-0.9-2.9-1.2L170.3,55.3z M151.5,46.1c5.1,3.3,10.2,5.8,14.6,7.5l-12,26.1c-2.2-0.7-4.5-1.2-6.9-1.4
		L151.5,46.1z M144,40.6c1.1,0.9,2.2,1.8,3.2,2.6l-1.9,35.1c-0.4,0-0.8-0.1-1.2-0.1c0,0,0,0,0,0c-0.4,0-0.8,0-1.3,0.1l-1.9-35.2
		C142.2,42.1,143.3,41.2,144,40.6z M136.4,46.1l4.4,32.3c-2.4,0.2-4.8,0.7-7,1.4l-12-26.2C127.8,51.2,132.7,48.5,136.4,46.1z
		 M117.4,55.3l14.4,25.2c-1,0.4-1.9,0.8-2.9,1.3l-18.3-24.4C113,56.7,115.3,56,117.4,55.3z M89.8,60c5.5,0,10.7-0.5,15.6-1.4
		L127,82.8c-1.6,0.9-3.2,2-4.6,3.2L86.6,59.9C87.7,59.9,88.7,60,89.8,60z M67,57.6c2,0.4,6.1,1.2,11.3,1.8l42.9,27.8
		c-0.6,0.5-1.1,1.1-1.7,1.6l-53-28.4C66.6,59.4,66.8,58.5,67,57.6z M65.6,65.5L118.4,90c-1,1.2-2,2.4-2.8,3.7L64.1,79.2
		C64.4,74.8,64.9,70.2,65.6,65.5z M63.8,84.1l50.9,11.1c-0.4,0.8-0.9,1.6-1.2,2.4l-49.8-6.7C63.7,88.7,63.7,86.4,63.8,84.1z
		 M112.7,99.4c-1.1,2.7-1.9,5.5-2.2,8.5c-3.9-0.2-9.2-1.5-13.9-2.8l-5.8-1.7c-2.9-0.9-7.8-1.5-11.4-1.5c0,0,0,0,0,0
		c-5.2,0-10.5,1.2-15.1,3.4c-0.2-2.9-0.4-6.1-0.4-9.6L112.7,99.4z M208.6,168.2c-10.1,24.7-29.5,58.4-64.4,79.7
		c-35-21.2-54.4-54.9-64.6-79.5c-9.4-22.7-12.8-41.9-13.7-47.6c4.2-2.3,8.3-3.5,13-3.5c0,0,0,0,0,0c3.3,0,8,0.6,10.6,1.4l1.6,0.5
		c1.4,0.4,2.8,0.8,4.2,1.2v0c5.2,1.5,11,3,15.4,3c0,0,0,0,0,0c4.9,0,12.6-0.7,21.3-3.7c2.5-0.9,5.4-1.8,8.6-2.2l2.9-0.2
		c0.1,0,0.1,0,0.2,0l4.4,0.4c2.7,0.5,5.2,1.3,7.3,2c8.6,3,16.3,3.7,21.3,3.7c0,0,0,0,0,0c3,0,6.9-0.7,12.2-2.1v0
		c2.2-0.6,4.5-1.3,6.6-1.9l2.4-0.7c2.7-0.8,7.5-1.4,10.8-1.4c0,0,0,0,0,0c4.7,0,9,1.1,13.1,3.4C221.3,126,217.9,145.4,208.6,168.2z"
		/>
</g>
</svg>
